# File created by Blade
# Date/Time:  Thu Jan 22 19:49:01 2015
# Frame Rate: 120.000 fps
#------------------------------------------------------
:FULLY-SPECIFIED
:DEGREES
2407
root -2.116673 2.758244 -9.657085 -26.071081 -4.303814 -1.405563
RightUpLeg -91.988498 30.148884 49.521560
RightLeg 120.679081 -0.000000 -0.000000
RightFoot 12.161711 -10.649409 -13.903956
RightToeBase -1.729958 -0.000000 0.000000
LeftUpLeg -63.868783 -5.544938 3.354636
LeftLeg 5.214871 -0.000000 -0.000000
LeftFoot 12.902998 -0.519836 -6.176954
LeftToeBase -18.492002 -0.000000 0.000000
Spine 39.600614 -22.882025 -14.182923
RightShoulder -15.744079 -25.760035 -11.023487
RightArm 13.876901 -40.032059 75.053780
RightForeArm -7.818471 -0.000000 42.145552
RightHand 14.647596 -0.000000 -32.298774
RightHandThumb1 -24.326973 -0.000000 -32.862282
LeftShoulder -4.834091 -21.922480 31.607872
LeftArm 62.070930 -0.593671 -60.977879
LeftForeArm 23.227437 -0.000000 98.393668
LeftHand -1.255666 0.000000 -2.618491
LeftHandThumb1 -26.253704 0.000000 33.147579
Head -6.011783 4.706797 -1.506652
2408
root -2.113352 2.761148 -9.657058 -26.118417 -4.410165 -1.361559
RightUpLeg -91.928865 30.188445 49.471284
RightLeg 120.613441 -0.000000 -0.000000
RightFoot 12.217831 -10.629554 -13.825426
RightToeBase -1.592730 -0.000000 0.000000
LeftUpLeg -63.810154 -5.479215 3.383742
LeftLeg 5.206208 -0.000000 -0.000000
LeftFoot 12.980310 -0.673675 -6.198324
LeftToeBase -18.190195 -0.000000 0.000000
Spine 39.665096 -23.356758 -14.434049
RightShoulder -15.837900 -25.740785 -11.047066
RightArm 14.019305 -40.082666 74.993614
RightForeArm -8.278629 0.000000 42.000037
RightHand 14.845799 -0.000000 -31.903027
RightHandThumb1 -24.326973 -0.000000 -32.862282
LeftShoulder -4.659523 -22.848074 32.115042
LeftArm 62.903690 0.503041 -60.938516
LeftForeArm 24.221274 0.000000 96.400321
LeftHand -1.032524 -0.000000 -2.050141
LeftHandThumb1 -26.253704 0.000000 33.147579
Head -5.987148 4.885126 -1.931031
2409
root -2.112050 2.765145 -9.655118 -26.171382 -4.495775 -1.318902
RightUpLeg -91.887195 30.209303 49.394710
RightLeg 120.566968 -0.000000 -0.000000
RightFoot 12.255945 -10.502123 -13.864036
RightToeBase -1.412876 -0.000000 0.000000
LeftUpLeg -63.738638 -5.421328 3.392394
LeftLeg 5.191014 -0.000000 -0.000000
LeftFoot 13.050182 -0.833320 -6.212187
LeftToeBase -18.655323 -0.000000 0.000000
Spine 39.762733 -23.909553 -14.743176
RightShoulder -15.822137 -25.738278 -11.102243
RightArm 14.272408 -40.186388 74.876362
RightForeArm -8.787924 0.000000 41.756783
RightHand 14.870754 -0.000000 -32.104583
RightHandThumb1 -24.326973 -0.000000 -32.862282
LeftShoulder -4.541613 -23.980559 32.621366
LeftArm 63.410115 1.779541 -60.956283
LeftForeArm 25.488244 -0.000000 94.464033
LeftHand -1.132083 0.000000 -1.409265
LeftHandThumb1 -26.253704 0.000000 33.147579
Head -5.983721 5.158770 -2.413085
2410
root -2.108044 2.768986 -9.656107 -26.211955 -4.606968 -1.276675
RightUpLeg -91.824624 30.228476 49.359047
RightLeg 120.517225 -0.000000 -0.000000
RightFoot 12.264613 -10.434507 -13.745547
RightToeBase -1.331975 -0.000000 0.000000
LeftUpLeg -63.681153 -5.357257 3.434636
LeftLeg 5.170755 -0.000000 -0.000000
LeftFoot 13.115996 -0.986817 -6.125172
LeftToeBase -18.802548 -0.000000 0.000000
Spine 39.854735 -24.413868 -14.996789
RightShoulder -15.840374 -25.577048 -11.174900
RightArm 14.387809 -40.320150 74.833544
RightForeArm -9.289762 0.000000 41.473829
RightHand 15.003562 -0.000000 -31.894834
RightHandThumb1 -24.326973 -0.000000 -32.862282
LeftShoulder -4.387486 -25.425810 33.150743
LeftArm 63.595596 3.233655 -61.035091
LeftForeArm 26.963700 -0.000000 92.500112
LeftHand -1.211355 -0.000000 -0.610734
LeftHandThumb1 -26.253704 0.000000 33.147579
Head -6.006936 5.384133 -2.834658
2411
root -2.103905 2.774706 -9.659184 -26.247830 -4.736414 -1.234632
RightUpLeg -91.731082 30.249264 49.359933
RightLeg 120.444361 -0.000000 -0.000000
RightFoot 12.255489 -10.455437 -13.490859
RightToeBase -0.879338 -0.000000 0.000000
LeftUpLeg -63.627208 -5.290819 3.505425
LeftLeg 5.161777 -0.000000 -0.000000
LeftFoot 13.122870 -1.071793 -5.981028
LeftToeBase -18.145000 -0.000000 0.000000
Spine 39.942084 -24.944835 -15.271659
RightShoulder -15.771415 -25.521744 -11.238502
RightArm 14.666612 -40.391755 74.717343
RightForeArm -9.821350 -0.000000 41.150587
RightHand 14.950497 -0.000000 -31.664625
RightHandThumb1 -24.326973 -0.000000 -32.862282
LeftShoulder -4.183979 -25.638293 33.243464
LeftArm 64.987685 4.141649 -60.761520
LeftForeArm 28.254803 -0.000000 90.269218
LeftHand -0.836103 -0.000000 0.286694
LeftHandThumb1 -26.253704 0.000000 33.147579
Head -5.997385 5.669234 -3.271530
2412
root -2.100085 2.780215 -9.660772 -26.290524 -4.863269 -1.178843
RightUpLeg -91.642050 30.273378 49.348955
RightLeg 120.388093 -0.000000 -0.000000
RightFoot 12.288642 -10.443365 -13.420700
RightToeBase -0.553777 -0.000000 0.000000
LeftUpLeg -63.561409 -5.209438 3.537733
LeftLeg 5.133442 -0.000000 -0.000000
LeftFoot 13.229168 -1.135013 -5.903620
LeftToeBase -18.650822 -0.000000 0.000000
Spine 40.076809 -25.434029 -15.557601
RightShoulder -15.731438 -25.331048 -11.256088
RightArm 14.850535 -40.572227 74.583332
RightForeArm -10.290488 0.000000 40.819813
RightHand 14.984286 -0.000000 -31.559830
RightHandThumb1 -24.326973 -0.000000 -32.862282
LeftShoulder -4.011775 -25.608793 33.269034
LeftArm 66.682800 4.971699 -60.283235
LeftForeArm 29.796372 0.000000 87.966222
LeftHand -0.667329 -0.000000 1.180673
LeftHandThumb1 -26.253704 0.000000 33.147579
Head -6.122450 5.859449 -3.653773
2413
root -2.096723 2.783927 -9.660973 -26.363293 -4.975373 -1.112487
RightUpLeg -91.548319 30.280466 49.330304
RightLeg 120.343628 -0.000000 -0.000000
RightFoot 12.331274 -10.400125 -13.311775
RightToeBase -0.290266 -0.000000 0.000000
LeftUpLeg -63.476724 -5.151517 3.579101
LeftLeg 5.127467 -0.000000 -0.000000
LeftFoot 13.290769 -1.176374 -5.852148
LeftToeBase -18.828046 -0.000000 0.000000
Spine 40.175950 -25.882786 -15.835573
RightShoulder -15.737776 -25.249571 -11.291554
RightArm 15.177410 -40.723202 74.444890
RightForeArm -10.750568 0.000000 40.402750
RightHand 15.073078 -0.000000 -30.903809
RightHandThumb1 -24.326973 -0.000000 -32.862282
LeftShoulder -3.700483 -26.422268 33.376321
LeftArm 67.424782 6.212877 -59.997207
LeftForeArm 31.416861 -0.000000 85.657504
LeftHand -0.319776 -0.000000 2.101833
LeftHandThumb1 -26.253704 0.000000 33.147579
Head -6.092614 6.104171 -4.038385
2414
root -2.095397 2.787677 -9.661151 -26.431757 -5.065892 -1.048513
RightUpLeg -91.473402 30.281816 49.293817
RightLeg 120.295412 -0.000000 -0.000000
RightFoot 12.381957 -10.325135 -13.196509
RightToeBase 0.003428 -0.000000 -0.000000
LeftUpLeg -63.396965 -5.092350 3.598406
LeftLeg 5.133522 -0.000000 -0.000000
LeftFoot 13.325018 -1.212506 -5.885893
LeftToeBase -18.885943 -0.000000 0.000000
Spine 40.282656 -26.298183 -16.098054
RightShoulder -15.760846 -25.149498 -11.237390
RightArm 15.534645 -40.936622 74.206209
RightForeArm -11.102119 -0.000000 39.998467
RightHand 15.061161 0.000000 -30.567995
RightHandThumb1 -24.326973 -0.000000 -32.862282
LeftShoulder -3.303587 -26.731890 33.300521
LeftArm 68.675335 7.196716 -59.478011
LeftForeArm 33.056203 -0.000000 83.252230
LeftHand 0.134946 -0.000000 3.092771
LeftHandThumb1 -26.253704 0.000000 33.147579
Head -6.122104 6.313537 -4.377404
